<svg id="Social_Icons" data-name="Social Icons" xmlns="http://www.w3.org/2000/svg" viewBox="0 0 128 128"><defs><style>.cls-1{fill:#fffaea;fill-rule:evenodd;}</style></defs><g id="_1_stroke" data-name="1 stroke"><g id="Facebook"><path id="Facebook-2" data-name="Facebook" class="cls-1" d="M68.37,128H7.07A7.06,7.06,0,0,1,0,120.93V7.07A7.06,7.06,0,0,1,7.07,0H120.94A7.06,7.06,0,0,1,128,7.07V120.94a7.06,7.06,0,0,1-7.06,7.06H88.32V78.43H105l2.49-19.32H88.32V46.78c0-5.59,1.55-9.4,9.57-9.4h10.23V20.09a138.37,138.37,0,0,0-14.91-.76c-14.75,0-24.84,9-24.84,25.54V59.11H51.69V78.43H68.37Z"/></g></g></svg>