<svg id="Calque_1" data-name="Calque 1" xmlns="http://www.w3.org/2000/svg" viewBox="0 0 64 64"><defs><style>.cls-1{fill:#f9f9e7;}</style></defs><g id="_3-instagram" data-name=" 3-instagram"><path class="cls-1" d="M52.8,0H11.2A11.19,11.19,0,0,0,0,11.2V52.8A11.19,11.19,0,0,0,11.2,64H52.8A11.19,11.19,0,0,0,64,52.8V11.2A11.19,11.19,0,0,0,52.8,0ZM56,44A12,12,0,0,1,44,56H20A12,12,0,0,1,8,44V20A12,12,0,0,1,20,8H44A12,12,0,0,1,56,20Z"/><path class="cls-1" d="M32,23.2A8.8,8.8,0,1,0,40.8,32,8.8,8.8,0,0,0,32,23.2Z"/><path class="cls-1" d="M44,12.8H20A7.22,7.22,0,0,0,12.8,20V44A7.22,7.22,0,0,0,20,51.2H44A7.22,7.22,0,0,0,51.2,44V20A7.22,7.22,0,0,0,44,12.8ZM32,45.6A13.6,13.6,0,1,1,45.6,32,13.6,13.6,0,0,1,32,45.6Zm13.6-24A2.4,2.4,0,1,1,48,19.2,2.39,2.39,0,0,1,45.6,21.6Z"/></g></svg>