<svg id="Calque_1" data-name="Calque 1" xmlns="http://www.w3.org/2000/svg" viewBox="0 0 250 173.8"><defs><style>.cls-1{fill:#f1f8f4;fill-rule:evenodd;}</style></defs><path class="cls-1" d="M273.84,113.44A49.92,49.92,0,0,0,229.31,67,789.58,789.58,0,0,0,150,63.1,792.63,792.63,0,0,0,70.69,67a49.94,49.94,0,0,0-44.53,46.45C25.4,125.39,25,137.6,25,150s.4,24.61,1.16,36.56A49.92,49.92,0,0,0,70.69,233,789.58,789.58,0,0,0,150,236.9,792.63,792.63,0,0,0,229.31,233a49.94,49.94,0,0,0,44.53-46.45C274.6,174.61,275,162.4,275,150S274.6,125.39,273.84,113.44Zm-147,74V112.56L188.19,150Z" transform="translate(-25 -63.1)"/></svg>