<svg id="Calque_1" data-name="Calque 1" xmlns="http://www.w3.org/2000/svg" viewBox="0 0 250 173.8"><defs><style>.cls-1{fill:red;}.cls-1,.cls-2{fill-rule:evenodd;}.cls-2{fill:#fff;}</style></defs><path class="cls-1" d="M26.16,113.44A49.93,49.93,0,0,1,70.69,67,792.63,792.63,0,0,1,150,63.1,789.58,789.58,0,0,1,229.31,67a49.92,49.92,0,0,1,44.53,46.44c.76,12,1.16,24.16,1.16,36.56s-.4,24.61-1.16,36.56A49.94,49.94,0,0,1,229.31,233,792.63,792.63,0,0,1,150,236.9,789.58,789.58,0,0,1,70.69,233a49.92,49.92,0,0,1-44.53-46.44C25.4,174.61,25,162.4,25,150s.4-24.61,1.16-36.56Z" transform="translate(-25 -63.1)"/><path class="cls-2" d="M188.19,150l-61.37,37.44V112.56Z" transform="translate(-25 -63.1)"/></svg>